Normalized EMG Linear Envelopes
nRows=238
nColumns=4

endheader
time	 med_gas_r	  soleus_r	 tib_ant_r	
12.2087	  0.043647	  0.385783	  0.081073	
12.2419	  0.044122	  0.385094	  0.079540	
12.2752	  0.044431	  0.378949	  0.077921	
12.3085	  0.044710	  0.368674	  0.076677	
12.3417	  0.044979	  0.356967	  0.076007	
12.375	  0.044978	  0.345440	  0.075835	
12.4083	  0.044608	  0.335653	  0.075846	
12.4415	  0.044019	  0.330401	  0.076049	
12.4748	  0.043335	  0.329844	  0.076483	
12.5081	  0.042635	  0.331755	  0.076824	
12.5413	  0.042125	  0.333353	  0.076651	
12.5746	  0.041846	  0.332869	  0.075490	
12.6079	  0.041746	  0.330820	  0.073715	
12.6411	  0.041790	  0.327794	  0.072072	
12.6744	  0.042015	  0.323579	  0.070912	
12.7077	  0.042443	  0.318132	  0.070210	
12.7409	  0.043031	  0.313619	  0.069865	
12.7742	  0.043721	  0.311877	  0.069889	
12.8075	  0.044540	  0.313124	  0.070499	
12.8407	  0.045366	  0.317802	  0.071772	
12.874	  0.045994	  0.324724	  0.073201	
12.9073	  0.046308	  0.333130	  0.074182	
12.9405	  0.046354	  0.341178	  0.074833	
12.9738	  0.046155	  0.346376	  0.075473	
13.0071	  0.045809	  0.347419	  0.076633	
13.0403	  0.045648	  0.346320	  0.078651	
13.0736	  0.045933	  0.346699	  0.081287	
13.1069	  0.046732	  0.349603	  0.084105	
13.1401	  0.047819	  0.354079	  0.086625	
13.1734	  0.048734	  0.358508	  0.088584	
13.2067	  0.049200	  0.363905	  0.089539	
13.2399	  0.049164	  0.371087	  0.089170	
13.2732	  0.048676	  0.379748	  0.087745	
13.3065	  0.047957	  0.387215	  0.085865	
13.3397	  0.047278	  0.391616	  0.084268	
13.373	  0.046780	  0.394332	  0.083065	
13.4062	  0.046464	  0.398426	  0.081808	
13.4395	  0.046107	  0.404064	  0.080471	
13.4728	  0.045558	  0.408375	  0.079509	
13.506	  0.044820	  0.408098	  0.078948	
13.5393	  0.044065	  0.402640	  0.078274	
13.5726	  0.043511	  0.393605	  0.077327	
13.6058	  0.043224	  0.382249	  0.076333	
13.6391	  0.043174	  0.369921	  0.075341	
13.6724	  0.043282	  0.358748	  0.074178	
13.7056	  0.043593	  0.350298	  0.072960	
13.7389	  0.044207	  0.345529	  0.072210	
13.7722	  0.045009	  0.344870	  0.072031	
13.8054	  0.045780	  0.347288	  0.072116	
13.8387	  0.046253	  0.350928	  0.072203	
13.872	  0.046249	  0.354471	  0.072189	
13.9052	  0.045869	  0.356296	  0.072234	
13.9385	  0.045386	  0.354316	  0.072376	
13.9718	  0.044907	  0.349378	  0.072572	
14.005	  0.044633	  0.344298	  0.072930	
14.0383	  0.044616	  0.342009	  0.073714	
14.0716	  0.044686	  0.345187	  0.074987	
14.1048	  0.044618	  0.354215	  0.076390	
14.1381	  0.044528	  0.367458	  0.077349	
14.1714	  0.044628	  0.382212	  0.078186	
14.2046	  0.045036	  0.396089	  0.079340	
14.2379	  0.045663	  0.406975	  0.080912	
14.2712	  0.046343	  0.412565	  0.082368	
14.3044	  0.047083	  0.411920	  0.083235	
14.3377	  0.047663	  0.406050	  0.083687	
14.371	  0.047885	  0.398268	  0.083778	
14.4042	  0.047850	  0.390832	  0.083555	
14.4375	  0.047664	  0.384154	  0.082992	
14.4708	  0.047392	  0.379347	  0.082381	
14.504	  0.047121	  0.376239	  0.082288	
14.5373	  0.046809	  0.372818	  0.082669	
14.5706	  0.046437	  0.369651	  0.083071	
14.6038	  0.046095	  0.368275	  0.082956	
14.6371	  0.045874	  0.368884	  0.082460	
14.6704	  0.045723	  0.371084	  0.081874	
14.7036	  0.045631	  0.374152	  0.080854	
14.7369	  0.045815	  0.375408	  0.078861	
14.7702	  0.046368	  0.374912	  0.076143	
14.8034	  0.047117	  0.375226	  0.073604	
14.8367	  0.047920	  0.378143	  0.071702	
14.87	  0.048690	  0.383480	  0.070510	
14.9032	  0.049415	  0.389634	  0.070022	
14.9365	  0.049934	  0.395783	  0.070331	
14.9698	  0.050180	  0.401868	  0.071117	
15.003	  0.050503	  0.406804	  0.071567	
15.0363	  0.051101	  0.408785	  0.071576	
15.0696	  0.052047	  0.406679	  0.071716	
15.1028	  0.053217	  0.399865	  0.072107	
15.1361	  0.054380	  0.391282	  0.072631	
15.1694	  0.055661	  0.383789	  0.073141	
15.2026	  0.056931	  0.377716	  0.073438	
15.2359	  0.057710	  0.372475	  0.073357	
15.2692	  0.058200	  0.369403	  0.073218	
15.3024	  0.058619	  0.370598	  0.073391	
15.3357	  0.059199	  0.377470	  0.074187	
15.369	  0.060022	  0.388238	  0.075577	
15.4022	  0.060894	  0.400629	  0.077224	
15.4355	  0.061562	  0.412192	  0.078820	
15.4687	  0.062042	  0.420696	  0.080441	
15.502	  0.062514	  0.425090	  0.082007	
15.5353	  0.063288	  0.427585	  0.083214	
15.5685	  0.064265	  0.428581	  0.083965	
15.6018	  0.065214	  0.427235	  0.084428	
15.6351	  0.066382	  0.423637	  0.084685	
15.6683	  0.067783	  0.421349	  0.084716	
15.7016	  0.069086	  0.422738	  0.084617	
15.7349	  0.069877	  0.428877	  0.084606	
15.7681	  0.070253	  0.439369	  0.084521	
15.8014	  0.070277	  0.452940	  0.084166	
15.8347	  0.069963	  0.470040	  0.083736	
15.8679	  0.070034	  0.490099	  0.083506	
15.9012	  0.071465	  0.512219	  0.083694	
15.9345	  0.074514	  0.535862	  0.084174	
15.9677	  0.079364	  0.559500	  0.085221	
16.001	  0.086152	  0.578278	  0.087069	
16.0343	  0.094058	  0.583719	  0.089019	
16.0675	  0.101724	  0.569057	  0.090292	
16.1008	  0.107516	  0.542157	  0.091124	
16.1341	  0.110163	  0.512356	  0.092207	
16.1673	  0.109436	  0.484624	  0.093645	
16.2006	  0.106832	  0.463696	  0.095393	
16.2339	  0.104263	  0.453088	  0.096919	
16.2671	  0.103148	  0.453393	  0.097520	
16.3004	  0.103858	  0.464697	  0.097263	
16.3337	  0.105814	  0.487764	  0.096708	
16.3669	  0.108362	  0.520613	  0.096093	
16.4002	  0.111027	  0.556125	  0.095082	
16.4335	  0.113965	  0.586935	  0.093852	
16.4667	  0.117518	  0.605731	  0.092414	
16.5	  0.121272	  0.604957	  0.090475	
16.5333	  0.124751	  0.590091	  0.088098	
16.5665	  0.128314	  0.575025	  0.085873	
16.5998	  0.131746	  0.567956	  0.084066	
16.6331	  0.134577	  0.570104	  0.082538	
16.6663	  0.137081	  0.580243	  0.081201	
16.6996	  0.139253	  0.593953	  0.080271	
16.7329	  0.140138	  0.601547	  0.079906	
16.7661	  0.138473	  0.591636	  0.080150	
16.7994	  0.135097	  0.565344	  0.080866	
16.8327	  0.131503	  0.533855	  0.081983	
16.8659	  0.128484	  0.506881	  0.083063	
16.8992	  0.125932	  0.490320	  0.083464	
16.9325	  0.123686	  0.486514	  0.083363	
16.9657	  0.122383	  0.493555	  0.083407	
16.999	  0.122224	  0.507003	  0.084006	
17.0323	  0.123376	  0.520428	  0.085287	
17.0655	  0.125142	  0.530395	  0.086855	
17.0988	  0.126590	  0.540116	  0.088258	
17.1321	  0.127913	  0.550434	  0.089277	
17.1653	  0.129640	  0.557401	  0.089546	
17.1986	  0.131028	  0.561425	  0.088870	
17.2319	  0.131501	  0.566460	  0.087750	
17.2651	  0.131425	  0.571482	  0.086842	
17.2984	  0.131027	  0.574948	  0.086020	
17.3317	  0.129435	  0.577775	  0.084495	
17.3649	  0.126076	  0.578077	  0.082138	
17.3982	  0.121524	  0.574226	  0.079625	
17.4315	  0.117557	  0.569075	  0.077310	
17.4647	  0.115005	  0.566438	  0.074938	
17.498	  0.113222	  0.564188	  0.072375	
17.5312	  0.111068	  0.558611	  0.070366	
17.5645	  0.109195	  0.546176	  0.069780	
17.5978	  0.108545	  0.525321	  0.071285	
17.631	  0.109369	  0.502798	  0.075581	
17.6643	  0.111290	  0.486923	  0.083487	
17.6976	  0.113093	  0.480765	  0.095843	
17.7308	  0.114136	  0.482834	  0.113386	
17.7641	  0.114702	  0.489643	  0.136013	
17.7974	  0.115432	  0.497394	  0.162475	
17.8306	  0.115904	  0.506809	  0.190182	
17.8639	  0.115431	  0.518759	  0.214574	
17.8972	  0.114784	  0.529475	  0.227853	
17.9304	  0.114701	  0.538280	  0.223408	
17.9637	  0.115098	  0.547914	  0.205027	
17.997	  0.116075	  0.560979	  0.179966	
18.0302	  0.117472	  0.578562	  0.153827	
18.0635	  0.119379	  0.597932	  0.130020	
18.0968	  0.121735	  0.613761	  0.110107	
18.13	  0.124294	  0.619594	  0.095048	
18.1633	  0.126840	  0.616904	  0.085243	
18.1966	  0.129024	  0.613210	  0.080024	
18.2298	  0.130565	  0.616045	  0.078033	
18.2631	  0.132014	  0.626478	  0.077934	
18.2964	  0.133910	  0.638406	  0.078794	
18.3296	  0.135942	  0.645970	  0.080104	
18.3629	  0.138287	  0.647080	  0.081586	
18.3962	  0.141006	  0.642952	  0.082970	
18.4294	  0.144136	  0.637563	  0.084097	
18.4627	  0.147064	  0.629934	  0.085040	
18.496	  0.149291	  0.620652	  0.085861	
18.5292	  0.151044	  0.615133	  0.086597	
18.5625	  0.152788	  0.616066	  0.087601	
18.5958	  0.154336	  0.624895	  0.089021	
18.629	  0.155921	  0.642390	  0.090787	
18.6623	  0.158040	  0.664432	  0.092458	
18.6956	  0.160457	  0.686891	  0.094039	
18.7288	  0.162719	  0.706674	  0.095486	
18.7621	  0.164286	  0.719862	  0.096588	
18.7954	  0.165458	  0.724930	  0.096724	
18.8286	  0.167386	  0.721598	  0.095877	
18.8619	  0.170704	  0.708297	  0.094356	
18.8952	  0.175230	  0.691264	  0.092776	
18.9284	  0.180024	  0.676182	  0.091388	
18.9617	  0.183907	  0.663268	  0.090246	
18.995	  0.186622	  0.653382	  0.089721	
19.0282	  0.188519	  0.649293	  0.090059	
19.0615	  0.189159	  0.650487	  0.091211	
19.0948	  0.187761	  0.657804	  0.093250	
19.128	  0.185675	  0.672090	  0.095921	
19.1613	  0.183950	  0.689841	  0.098384	
19.1946	  0.181703	  0.708017	  0.099757	
19.2278	  0.177996	  0.722762	  0.100140	
19.2611	  0.173587	  0.731086	  0.099997	
19.2944	  0.169813	  0.732149	  0.100142	
19.3276	  0.166784	  0.728127	  0.100973	
19.3609	  0.164477	  0.718144	  0.102507	
19.3942	  0.163971	  0.708003	  0.104258	
19.4274	  0.165381	  0.703970	  0.105478	
19.4607	  0.167469	  0.704445	  0.105451	
19.494	  0.169024	  0.706159	  0.104231	
19.5272	  0.170226	  0.707718	  0.101858	
19.5605	  0.170900	  0.704840	  0.098200	
19.5937	  0.170988	  0.693356	  0.093482	
19.627	  0.170290	  0.674047	  0.088508	
19.6603	  0.168676	  0.651922	  0.084030	
19.6935	  0.166988	  0.632297	  0.080696	
19.7268	  0.165938	  0.619326	  0.078697	
19.7601	  0.164936	  0.615049	  0.077581	
19.7933	  0.163664	  0.620309	  0.077281	
19.8266	  0.163012	  0.637563	  0.077789	
19.8599	  0.163273	  0.665519	  0.078969	
19.8931	  0.164608	  0.697189	  0.080609	
19.9264	  0.166836	  0.723895	  0.082364	
19.9597	  0.169686	  0.743806	  0.083716	
19.9929	  0.172988	  0.754008	  0.084611	
20.0262	  0.176119	  0.753114	  0.085098	
20.0595	  0.178870	  0.744430	  0.085112	
20.0927	  0.180899	  0.727863	  0.084843	
